PathFileType	4	(X/Y/Z)	Patient4_TMGait_0pt4_02_right_31.trc.trc
DataRate	CameraRate	NumFrames	NumMarkers	Units	OrigDataRate	OrigDataStartFrame	OrigNumFrames
74.866310160428	74.866310160428	4	33	mm	74.866310160428	106	       141
Frame#	Time	Sacral			L.Shoulder			Chest			R.Shoulder			Neck			R.ASIS			L.ASIS			R.Thigh.Superior			R.Thigh.Lateral			R.Thigh.Inferior			R.Patella			L.Thigh.Superior			L.Thigh.Lateral			L.Thigh.Inferior			L.Patella			L.Shank.Superior			L.Shank.Lateral			L.Shank.Inferior			R.Shank.Superior			R.Shank.Lateral			R.Shank.Inferior			R.Heel			R.Midfoot.Superior			R.Midfoot.Lateral			R.Toe			L.Heel			L.Midfoot.Lateral			L.Midfoot.Superior			L.Toe			L.Elbow			L.Wrist			R.Elbow			R.Wrist			
		X1	Y1	Z1	X2	Y2	Z2	X3	Y3	Z3	X4	Y4	Z4	X5	Y5	Z5	X6	Y6	Z6	X7	Y7	Z7	X8	Y8	Z8	X9	Y9	Z9	X10	Y10	Z10	X11	Y11	Z11	X12	Y12	Z12	X13	Y13	Z13	X14	Y14	Z14	X15	Y15	Z15	X16	Y16	Z16	X17	Y17	Z17	X18	Y18	Z18	X19	Y19	Z19	X20	Y20	Z20	X21	Y21	Z21	X22	Y22	Z22	X23	Y23	Z23	X24	Y24	Z24	X25	Y25	Z25	X26	Y26	Z26	X27	Y27	Z27	X28	Y28	Z28	X29	Y29	Z29	X30	Y30	Z30	X31	Y31	Z31	X32	Y32	Z32	X33	Y33	Z33	

106	42.282500000000	846.737079682572	1011.238963138550	420.308199830001	1052.228581752626	1442.153682221617	247.393333359188	1140.568393582666	1369.026664144592	414.895051775210	1043.724398789436	1440.087251506199	583.270033201574	1024.127152291977	1500.091544948474	403.938072146100	1073.475859354333	953.046155790866	543.739012045338	1065.897528184315	965.809038539847	269.691828874883	1159.430482015953	785.576372339832	516.773073125006	1124.079537955429	664.579743863003	595.321691926648	1215.823782022648	625.950224126231	519.382593701280	1238.633077753476	516.757744976507	544.458348679433	1106.066209875911	748.621745646653	295.310590129913	1009.479799809330	636.623904260240	238.695952769921	1091.225177587775	555.622501205046	299.736299542955	1088.413985332888	486.739495217053	310.372612204902	1058.624932269294	415.636520848965	303.381923450075	963.741337698854	304.889103763220	255.492587857587	1010.297951369783	191.845498870150	326.108585685107	1167.587919948731	437.419816685805	555.723396684854	1051.697509199903	391.971618750439	622.433770780113	1042.313757530309	280.570101223884	577.234490613143	846.231940435839	212.140519602947	562.917649524343	1016.072515842757	151.472282542522	588.717745012135	909.055779691086	147.588313749609	628.699448395415	1083.404463301250	37.930388731870	604.506207669543	878.371386499952	39.350002130731	373.909667994255	947.954406499772	35.419294188956	289.506755497978	1033.292203538946	95.760169549371	312.570270588143	1160.156075403221	41.144080441970	277.046408842310	1107.496453519708	1114.317965247864	88.788106149526	1321.953008676522	961.269558182978	77.868178315887	946.895560444935	1101.224887161266	687.413163325622	975.391403201103	841.052757139834	692.809722486787	
107	42.295857142857	845.742883167345	1012.380117635277	419.038025639281	1054.817873840122	1442.403309642274	247.175211915081	1140.791048788589	1369.223387406025	415.819075401154	1042.193102446474	1441.036522367764	582.827393617375	1024.656947069918	1500.623845853783	403.430642496014	1071.343913154592	954.221864910606	544.534071525038	1065.996168824686	966.095761176762	270.396151365163	1158.348757746856	788.334952395500	517.358094522659	1124.411708865267	666.954037075798	595.998135454165	1216.174916040968	629.009231127367	519.893742125663	1240.796995563009	521.175076769275	545.099795686098	1103.457980326169	747.876659162985	297.132491743845	1006.123931433376	636.984446715396	239.063902121172	1086.145060133800	555.140697928852	300.931294160917	1082.425444527890	486.495601671496	311.452820120814	1052.891962779540	415.776269351169	303.935828406075	958.234138282221	305.011689863406	255.660351764244	1004.865377589021	191.988873489936	326.336397271999	1173.077724476442	439.899317952723	556.403004402613	1060.216623501058	388.880672977871	623.631962434812	1056.130011916781	277.308268512739	578.232093531933	863.904956462567	198.832877848563	564.678416128745	1036.476902990157	147.240613771262	589.447253486163	930.322421506289	137.792143624294	630.168123293281	1109.776694697288	37.934412992414	604.878280289452	872.897252127548	39.315009794116	373.871154251339	942.524470274165	35.405062032552	289.469255776303	1027.870399935592	95.790113550914	312.571787755392	1154.724205737475	41.222272968772	277.045776213880	1113.084612701523	1116.503617168133	87.028816399856	1333.131166206029	971.632688174614	77.416917342063	936.540273821130	1105.251118710596	686.754013360059	958.046208751259	844.517062092580	692.582762040004	
108	42.309214285714	844.846243691839	1013.408878409236	417.833046072228	1057.394176073771	1442.527984030503	247.137681366787	1141.052758118917	1369.310635236921	416.873159851556	1040.755165661629	1441.861908841313	582.511459744380	1025.184412834455	1501.032108929492	403.081666889313	1069.237814610055	955.184665830077	545.519480514854	1066.214270522671	966.232433066184	271.288904778451	1156.841953989276	790.345622381987	518.243250607893	1123.841552763390	668.733634395286	596.947880933060	1215.373319429750	631.111598559995	520.601104066025	1241.562178995828	524.955349423446	545.936796128207	1100.849642643244	747.077442712652	299.187486056419	1002.842416500053	637.319098500927	239.441280546426	1081.040560407697	554.636438762024	302.168844029975	1076.404734072280	486.241265369934	312.518466614909	1047.146575336899	415.888209477436	304.492384632986	952.740605533323	305.099969340696	255.819327409469	999.415437604847	192.104643084027	326.579790533902	1177.695351202476	441.893192143550	557.321527411770	1068.656124568916	384.794972923832	625.237400015730	1070.515926782330	273.352862745443	579.544828031015	883.298437591319	183.920876509194	566.854177745068	1058.321493300011	142.543695063096	590.537368882297	953.455390070538	126.997440186150	632.020222584589	1137.963261820914	38.236554429111	605.604189929756	867.433014391400	39.266633534293	373.842800345065	937.092610451334	35.380945124175	289.436328001554	1022.441913323493	95.811952036496	312.593139534278	1149.290000835630	41.305184156509	277.060913649561	1118.344578118333	1118.514276966313	85.534228160638	1343.473211506012	981.779226323894	77.357671552139	926.889715255412	1109.251775472154	686.202315084493	941.943184827382	848.150494984805	692.313432551926	
109	42.322571428571	844.059949905498	1014.277921122218	416.715239686017	1059.910463818441	1442.498597403215	247.286705481016	1141.343352302462	1369.263684821714	418.050413903121	1039.420775049394	1442.522755411837	582.341879377488	1025.703484396800	1501.287118423082	402.898735800744	1067.205371018577	955.888083154370	546.681344394253	1066.551704032581	966.202908531677	272.346675720374	1154.911209958470	791.499144361994	519.406016011362	1122.336250167464	669.839534982230	598.170272050287	1213.393211671776	632.172028312059	521.490292505449	1240.913166019745	528.001222810067	546.920280261308	1098.293593889990	746.219786218231	301.379426065190	999.671282461789	637.610321414308	239.811656841551	1075.983539286840	554.103198685399	303.400414458905	1070.440766012330	485.971090543444	313.526953055627	1041.458055146443	415.955079059430	305.030608605611	947.308438211369	305.149999363060	255.957876346686	993.964212175254	192.179307817356	326.829699735705	1181.371345446222	443.402444681502	558.447124532046	1076.951840643399	379.906135871937	627.211125106500	1085.282033858651	268.972444409533	581.125443873770	904.297667948011	167.934949359262	569.362978342497	1081.294908188486	137.777637869420	591.960147502036	978.196820255048	115.714582297386	634.187772704494	1167.449983377701	39.185709825505	606.667538981263	861.984186989112	39.209239072255	373.820487523881	931.661680370210	35.347946168301	289.405697554534	1017.010002286963	95.822860222300	312.630550090096	1143.856241694472	41.385490623005	277.089992225667	1123.287992175672	1120.300913712898	84.322592275022	1352.986001481573	991.592913895418	77.678788983688	918.001886426883	1113.093658149693	685.736309777524	927.100551499297	851.773001547840	692.026846476707	
